TITLE ""
FILE "Disc4Track31.mp3" MP3
  TRACK 01 AUDIO
    TITLE "Disc4Track31_01"
    INDEX 01 00:00:00
  TRACK 02 AUDIO
    TITLE "Disc4Track31_02"
    INDEX 01 00:01:22
  TRACK 03 AUDIO
    TITLE "Disc4Track31_03"
    INDEX 01 00:03:11
  TRACK 04 AUDIO
    TITLE "Disc4Track31_04"
    INDEX 01 00:04:39
  TRACK 05 AUDIO
    TITLE "Disc4Track31_05"
    INDEX 01 00:05:02
  TRACK 06 AUDIO
    TITLE "Disc4Track31_06"
    INDEX 01 00:06:34
  TRACK 07 AUDIO
    TITLE "Disc4Track31_07"
    INDEX 01 00:08:29
  TRACK 08 AUDIO
    TITLE "Disc4Track31_08"
    INDEX 01 00:09:64
  TRACK 09 AUDIO
    TITLE "Disc4Track31_09"
    INDEX 01 00:10:28
  TRACK 10 AUDIO
    TITLE "Disc4Track31_10"
    INDEX 01 00:11:65
  TRACK 11 AUDIO
    TITLE "Disc4Track31_11"
    INDEX 01 00:13:01
  TRACK 12 AUDIO
    TITLE "Disc4Track31_12"
    INDEX 01 00:14:38
  TRACK 13 AUDIO
    TITLE "Disc4Track31_13"
    INDEX 01 00:19:15
  TRACK 14 AUDIO
    TITLE "Disc4Track31_14"
    INDEX 01 00:19:49
  TRACK 15 AUDIO
    TITLE "Disc4Track31_15"
    INDEX 01 00:21:12
  TRACK 16 AUDIO
    TITLE "Disc4Track31_16"
    INDEX 01 00:22:28
  TRACK 17 AUDIO
    TITLE "Disc4Track31_17"
    INDEX 01 00:23:68
  TRACK 18 AUDIO
    TITLE "Disc4Track31_18"
    INDEX 01 00:24:34
  TRACK 19 AUDIO
    TITLE "Disc4Track31_19"
    INDEX 01 00:25:61
  TRACK 20 AUDIO
    TITLE "Disc4Track31_20"
    INDEX 01 00:28:26
  TRACK 21 AUDIO
    TITLE "Disc4Track31_21"
    INDEX 01 00:29:53
  TRACK 22 AUDIO
    TITLE "Disc4Track31_22"
    INDEX 01 00:30:17
  TRACK 23 AUDIO
    TITLE "Disc4Track31_23"
    INDEX 01 00:31:30
  TRACK 24 AUDIO
    TITLE "Disc4Track31_24"
    INDEX 01 00:32:40
  TRACK 25 AUDIO
    TITLE "Disc4Track31_25"
    INDEX 01 00:33:53
  TRACK 26 AUDIO
    TITLE "Disc4Track31_26"
    INDEX 01 00:36:69
  TRACK 27 AUDIO
    TITLE "Disc4Track31_27"
    INDEX 01 00:37:21
  TRACK 28 AUDIO
    TITLE "Disc4Track31_28"
    INDEX 01 00:38:42
  TRACK 29 AUDIO
    TITLE "Disc4Track31_29"
    INDEX 01 00:40:04
  TRACK 30 AUDIO
    TITLE "Disc4Track31_30"
    INDEX 01 00:41:25
  TRACK 31 AUDIO
    TITLE "Disc4Track31_31"
    INDEX 01 00:41:60
  TRACK 32 AUDIO
    TITLE "Disc4Track31_32"
    INDEX 01 00:43:14
  TRACK 33 AUDIO
    TITLE "Disc4Track31_33"
    INDEX 01 00:44:17
  TRACK 34 AUDIO
    TITLE "Disc4Track31_34"
    INDEX 01 00:45:46
  TRACK 35 AUDIO
    TITLE "Disc4Track31_35"
    INDEX 01 00:46:06
  TRACK 36 AUDIO
    TITLE "Disc4Track31_36"
    INDEX 01 00:47:27
  TRACK 37 AUDIO
    TITLE "Disc4Track31_37"
    INDEX 01 00:49:11
  TRACK 38 AUDIO
    TITLE "Disc4Track31_38"
    INDEX 01 00:50:30
  TRACK 39 AUDIO
    TITLE "Disc4Track31_39"
    INDEX 01 00:50:67
  TRACK 40 AUDIO
    TITLE "Disc4Track31_40"
    INDEX 01 00:52:23
  TRACK 41 AUDIO
    TITLE "Disc4Track31_41"
    INDEX 01 00:55:25
  TRACK 42 AUDIO
    TITLE "Disc4Track31_42"
    INDEX 01 00:56:50
  TRACK 43 AUDIO
    TITLE "Disc4Track31_43"
    INDEX 01 00:58:45
  TRACK 44 AUDIO
    TITLE "Disc4Track31_44"
    INDEX 01 00:58:74
  TRACK 45 AUDIO
    TITLE "Disc4Track31_45"
    INDEX 01 01:00:22
  TRACK 46 AUDIO
    TITLE "Disc4Track31_46"
    INDEX 01 01:01:33
  TRACK 47 AUDIO
    TITLE "Disc4Track31_47"
    INDEX 01 01:02:54
  TRACK 48 AUDIO
    TITLE "Disc4Track31_48"
    INDEX 01 01:05:45
  TRACK 49 AUDIO
    TITLE "Disc4Track31_49"
    INDEX 01 01:06:01
  TRACK 50 AUDIO
    TITLE "Disc4Track31_50"
    INDEX 01 01:07:11
  TRACK 51 AUDIO
    TITLE "Disc4Track31_51"
    INDEX 01 01:10:01
  TRACK 52 AUDIO
    TITLE "Disc4Track31_52"
    INDEX 01 01:11:10
  TRACK 53 AUDIO
    TITLE "Disc4Track31_53"
    INDEX 01 01:16:55
  TRACK 54 AUDIO
    TITLE "Disc4Track31_54"
    INDEX 01 01:17:09
  TRACK 55 AUDIO
    TITLE "Disc4Track31_55"
    INDEX 01 01:18:36
  TRACK 56 AUDIO
    TITLE "Disc4Track31_56"
    INDEX 01 01:19:63
  TRACK 57 AUDIO
    TITLE "Disc4Track31_57"
    INDEX 01 01:21:11
  TRACK 58 AUDIO
    TITLE "Disc4Track31_58"
    INDEX 01 01:24:62
  TRACK 59 AUDIO
    TITLE "Disc4Track31_59"
    INDEX 01 01:25:18
  TRACK 60 AUDIO
    TITLE "Disc4Track31_60"
    INDEX 01 01:26:47
  TRACK 61 AUDIO
    TITLE "Disc4Track31_61"
    INDEX 01 01:27:43
  TRACK 62 AUDIO
    TITLE "Disc4Track31_62"
    INDEX 01 01:28:72
